<?xml version="1.0" encoding="utf-8"?>
<!-- Svg Vector Icons : http://www.onlinewebfonts.com/icon -->
<!DOCTYPE svg PUBLIC "-//W3C//DTD SVG 1.1//EN" "http://www.w3.org/Graphics/SVG/1.1/DTD/svg11.dtd">
<svg version="1.1" xmlns="http://www.w3.org/2000/svg" xmlns:xlink="http://www.w3.org/1999/xlink" x="0px" y="0px" viewBox="0 0 1000 1000" enable-background="new 0 0 1000 1000" xml:space="preserve">
<metadata> Svg Vector Icons : http://www.onlinewebfonts.com/icon </metadata>
<g><g transform="translate(0.000000,512.000000) scale(0.100000,-0.100000)"><path d="M7080.8,5005.1c-42.2-13.4-103.6-38.4-136.2-55.6c-82.5-42.2-214.8-191.8-262.7-297.3l-42.2-90.1V2504.2V444.5l63.3-55.6c72.9-65.2,178.4-74.8,251.3-24.9c74.8,53.7,97.8,140,97.8,372v211l1223.6-3.8l1221.6-5.8l5.8-297.3c7.7-347.1-9.6-425.8-97.8-479.5c-57.5-36.4-103.6-38.4-939.7-38.4h-880.3L7520,57.1c-72.9-72.9-84.4-147.7-36.4-239.7c49.9-97.8,63.3-99.7,1064.4-94c928.2,5.8,930.1,5.8,1012.6,49.9c126.6,67.1,228.2,168.8,285.8,287.7l53.7,109.3v2205.5v2205.5l-47.9,95.9c-59.4,122.7-174.5,237.8-297.3,297.3l-95.9,47.9l-1150.7,3.8C7416.4,5030,7140.3,5024.2,7080.8,5005.1z M9382.2,4598.5c88.2-40.3,128.5-132.3,120.8-272.3l-5.8-109.3l-1221.6-5.7l-1223.6-3.8v141.9c0,151.5,34.5,226.3,122.8,260.8c21.1,9.6,514,17.3,1091.2,17.3C9186.6,4629.2,9326.6,4625.3,9382.2,4598.5z M9506.8,2577.1V1349.7H8279.5H7052.1v1227.4v1227.4h1227.4h1227.4V2577.1z"/><path d="M571.8,3380.7c-176.4-34.5-368.2-199.5-435.3-374c-34.5-90.1-36.4-186-36.4-2884.4c0-2698.3,1.9-2794.2,36.4-2884.4c69-182.2,251.2-333.7,448.8-374c67.1-13.4,485.2-21.1,1231.2-21.1h1131.5v-370.1v-368.2l-297.3-297.3c-186-186-299.2-314.5-306.8-347.1c-5.8-28.8,0-82.5,17.3-118.9c53.7-132.3,11.5-128.5,1327.1-128.5h1181.4l65.2,65.2c94,94,86.3,218.6-19.2,303c-36.4,30.7-117,34.5-960.8,34.5h-920.5l147.7,149.6c80.5,80.5,157.3,172.6,166.8,201.4c13.4,32.6,21.1,224.4,21.1,466v410.4h815.1H5000v-444.9V-4047l370.1-370.1c331.8-331.8,375.9-370.1,433.4-370.1c128.5,0,212.9,88.2,212.9,224.4c0,65.2-23,94-306.8,379.7l-306.9,308.8v356.7v358.6l1204.4,5.8l1202.5,5.8l111.2,44.1c151.5,61.4,289.6,201.4,329.9,333.7c38.4,134.2,38.4,439.2-1.9,523.6c-26.9,59.5-122.7,124.7-180.3,124.7c-13.4,0-51.8-13.4-86.3-30.7c-95.9-44.1-124.6-124.7-124.6-341.4v-182.2l-57.5-30.7c-49.9-24.9-462.2-28.8-3611.2-28.8H633.1l-49.9,40.3c-28.8,21.1-59.5,71-71,109.3C497-2535.8,493.1-1693.8,497,176l5.7,2692.6l63.3,55.6l61.4,55.6h2704.1c2963,0,2803.8-5.7,2865.2,113.2c38.4,72.9,38.4,122.7,0,195.6c-61.4,118.9,95.9,113.1-2849.9,111.2C1866.3,3397.9,617.8,3390.3,571.8,3380.7z"/><path d="M8133.7,670.8c-72.9-72.9-84.4-147.7-38.4-239.7c57.5-111.2,228.2-132.3,320.3-42.2c90.1,92.1,69.1,262.7-42.2,320.3C8281.4,755.2,8206.6,743.7,8133.7,670.8z"/><path d="M7930.4-757.9l-63.3-55.6l-5.7-251.2l-7.7-251.3H4440H1026.3l-55.6-55.6c-92.1-94-65.2-272.3,49.9-324.1c38.4-17.3,882.2-23,3569-23c3902.7,0,3605.5-9.6,3663,124.7c38.3,92.1,38.3,675.1,0,765.2C8195.1-692.7,8041.6-658.2,7930.4-757.9z"/></g></g>
</svg>