<?xml version="1.0" encoding="utf-8"?>
<!-- Svg Vector Icons : http://www.onlinewebfonts.com/icon -->
<!DOCTYPE svg PUBLIC "-//W3C//DTD SVG 1.1//EN" "http://www.w3.org/Graphics/SVG/1.1/DTD/svg11.dtd">
<svg version="1.1" xmlns="http://www.w3.org/2000/svg" xmlns:xlink="http://www.w3.org/1999/xlink" x="0px" y="0px" viewBox="0 0 1000 1000" enable-background="new 0 0 1000 1000" xml:space="preserve">
<metadata> Svg Vector Icons : http://www.onlinewebfonts.com/icon </metadata>
<g><g><path d="M500,638c-11.9,0-21.5,9.6-21.5,21.5S488.1,681,500,681c11.9,0,21.5-9.6,21.5-21.5S511.9,638,500,638z"/><path d="M970,52H30c-11,0-20,9-20,20v654.9c0,11,9,20,20,20h349.4l-35,84.9h-65.8c-11,0-20,9-20,20V928c0,11,9,20,20,20h442.6c11,0,20-9,20-20v-76.2c0-11-9-20-20-20h-65.8l-35-84.9H970c11,0,20-9,20-20V72C990,61,981,52,970,52z M950,92v481.8H50V92H950z M701.3,908H298.7v-36.2h402.6V908z M612.3,831.8H387.7l35-84.9h154.6L612.3,831.8z M50,706.9v-93.1h900v93.1H50z"/><path d="M656.4,332.2L656.4,332.2L656.4,332.2c0-11-9-20-20-20l-21.3,0c-1.2-6.9-3-13.7-5.4-20.2l18.4-10.6c9.6-5.5,12.8-17.8,7.3-27.3c-5.5-9.6-17.8-12.8-27.3-7.3l-18.5,10.7c-4.5-5.3-9.4-10.3-14.7-14.7l10.7-18.5c5.5-9.6,2.3-21.8-7.3-27.3c-9.6-5.5-21.8-2.3-27.3,7.3l-10.6,18.4c-6.5-2.4-13.2-4.2-20.2-5.4v-21.3c0-11-9-20-20-20c0,0-0.1,0-0.2,0s-0.1,0-0.2,0c-11,0-20,9-20,20v21.3c-6.9,1.2-13.7,3-20.2,5.4L449,204.2c-5.5-9.6-17.8-12.8-27.3-7.3c-9.6,5.5-12.8,17.8-7.3,27.3l10.7,18.5c-5.3,4.5-10.3,9.4-14.7,14.7l-18.5-10.7c-9.6-5.5-21.8-2.2-27.3,7.3s-2.2,21.8,7.3,27.3l18.4,10.6c-2.4,6.5-4.2,13.2-5.4,20.2l-21.3,0c-11,0-20,9-20,20l0,0l0,0l0,0l0,0c0,11,9,20,20,20l21.3,0c1.2,6.9,3,13.7,5.4,20.2L371.9,383c-9.6,5.5-12.8,17.8-7.3,27.3c5.5,9.6,17.8,12.8,27.3,7.3l18.5-10.7c4.5,5.3,9.4,10.3,14.7,14.7l-10.7,18.5c-5.5,9.6-2.3,21.8,7.3,27.3c9.6,5.5,21.8,2.3,27.3-7.3l10.6-18.4c6.5,2.4,13.2,4.2,20.2,5.4v21.3c0,11,9,20,20,20c0,0,0.1,0,0.2,0s0.1,0,0.2,0c11,0,20-9,20-20v-21.3c6.9-1.2,13.7-3,20.2-5.4l10.6,18.4c5.5,9.6,17.8,12.8,27.3,7.3c9.6-5.5,12.8-17.8,7.3-27.3l-10.7-18.5c5.3-4.5,10.3-9.4,14.7-14.7l18.5,10.7c9.6,5.5,21.8,2.2,27.3-7.3c5.5-9.6,2.2-21.8-7.3-27.3l-18.4-10.6c2.4-6.5,4.2-13.2,5.4-20.2l21.3,0C647.5,352.2,656.4,343.2,656.4,332.2L656.4,332.2L656.4,332.2z M500.2,408.9c0,0-0.1,0-0.2,0s-0.1,0-0.2,0c-42.3,0-76.7-34.4-76.7-76.7c0-42.3,34.4-76.7,76.7-76.7c0,0,0.1,0,0.2,0s0.1,0,0.2,0c42.3,0,76.7,34.4,76.7,76.7C576.8,374.5,542.4,408.9,500.2,408.9z"/></g><g></g><g></g><g></g><g></g><g></g><g></g><g></g><g></g><g></g><g></g><g></g><g></g><g></g><g></g><g></g></g>
</svg>