<?xml version="1.0" encoding="utf-8"?>
<!-- Svg Vector Icons : http://www.onlinewebfonts.com/icon -->
<!DOCTYPE svg PUBLIC "-//W3C//DTD SVG 1.1//EN" "http://www.w3.org/Graphics/SVG/1.1/DTD/svg11.dtd">
<svg version="1.1" xmlns="http://www.w3.org/2000/svg" xmlns:xlink="http://www.w3.org/1999/xlink" x="0px" y="0px" viewBox="0 0 1000 1000" enable-background="new 0 0 1000 1000" xml:space="preserve">
<metadata> Svg Vector Icons : http://www.onlinewebfonts.com/icon </metadata>
<g><g transform="translate(0.000000,511.000000) scale(0.100000,-0.100000)"><path d="M377.5,4235.6c-97.6-42.1-185.7-130.2-231.6-231.6l-45.9-95.7V-67.2v-3977.4h4900h4900L9896.2-48l-5.7,3994.7l-42.1,78.5c-47.9,90-139.7,174.2-229.7,212.5C9528.7,4273.9,463.7,4273.9,377.5,4235.6z M9553.6,3906.4c38.3-49.8,40.2-74.6,40.2-583.8v-534H5000H406.2v539.8c0,526.4,0,539.8,42.1,583.8l40.2,44h4513.4h4513.4L9553.6,3906.4z M9593.7-628v-3110.4H5000H406.2V-628v3110.4H5000h4593.7V-628z"/><path d="M3708,3389.6c-141.6-216.3-258.4-400-258.4-411.5c0-11.5,1047-15.3,2771.6-13.4l2769.6,5.7l5.7,407.7l3.8,405.8h-2517h-2517L3708,3389.6z M8537.2,3491.1l118.7-120.6l-120.6-118.7c-109.1-107.2-124.4-116.8-147.4-90c-21,26.8-15.3,40.2,47.9,105.3l74.7,76.6h-225.9c-202.9,0-223.9,3.8-218.2,34.4c5.7,28.7,34.5,32.5,225.9,38.3l220.1,5.7l-74.7,63.2c-53.6,44-70.8,72.7-63.2,93.8c5.7,17.2,19.1,32.5,26.8,32.5C8410.9,3611.7,8472.1,3558.1,8537.2,3491.1z M4276.5,3420.3c11.5-63.2,26.8-109.1,32.5-103.4c5.7,5.7,24.9,55.5,40.2,109.1c23,76.6,40.2,99.5,67,99.5c30.6,0,44-24.9,68.9-112.9c32.5-126.3,40.2-124.4,74.6,23c17.2,76.6,30.6,99.5,59.3,99.5c47.9,0,45.9-19.1-13.4-197.1c-42.1-128.2-55.5-149.3-90-143.6c-30.6,3.8-45.9,32.5-70.8,118.7l-30.6,112.9l-36.4-118.7c-28.7-95.7-42.1-116.8-76.6-116.8c-36.4,0-47.9,21.1-82.3,151.2c-51.7,183.8-51.7,193.3-3.8,193.3C4245.9,3535.1,4257.3,3514,4276.5,3420.3z M4812.4,3406.9l26.8-130.2l38.3,124.4c28.7,97.6,45.9,124.4,74.6,124.4s42.1-24.9,68.9-124.4c28.7-116.8,32.5-120.6,45.9-67c7.7,32.5,21,90,30.6,130.2c13.4,51.7,28.7,70.8,55.5,70.8c47.9,0,47.9,5.7-11.5-187.6c-42.1-141.7-51.7-158.9-90-153.1c-34.5,3.8-47.8,28.7-72.7,120.6l-30.6,114.8l-34.4-118.7c-28.7-101.4-40.2-120.6-76.6-120.6c-28.7,0-47.9,15.3-55.5,44c-5.7,23-26.8,99.5-47.9,172.3l-38.3,128.2h44C4778,3535.1,4787.5,3519.8,4812.4,3406.9z M5346.4,3406.9l28.7-130.2l34.5,130.2c28.7,97.6,44,128.2,70.8,128.2c24.9,0,42.1-26.8,65.1-99.5c15.3-53.6,28.7-112.9,30.6-128.2c1.9-34.5,24.9,26.8,55.5,147.4c15.3,59.3,30.6,80.4,57.4,80.4c47.9,0,47.9,3.8-13.4-185.7c-44-134-59.3-158.9-91.9-158.9c-34.5,0-45.9,19.1-67,105.3c-13.4,57.4-30.6,99.5-40.2,95.7c-7.7-5.7-23-51.7-36.4-105.3c-19.1-80.4-30.6-95.7-67-95.7s-47.9,21.1-86.1,149.3c-24.9,80.4-47.9,158.9-51.7,172.3c-5.7,13.4,7.7,23,36.4,23C5315.8,3535.1,5321.6,3523.6,5346.4,3406.9z M5847.9,3263.3c13.4-40.2-7.6-72.7-44-72.7c-44,0-65.1,30.6-49.8,67C5767.5,3292,5836.4,3295.8,5847.9,3263.3z"/><path d="M1183.4,3628.9c-99.5-28.7-183.8-137.8-183.8-237.3c0-126.3,128.2-258.4,248.8-258.4c183.8,0,306.3,214.4,220.1,382.8C1422.6,3605.9,1286.7,3659.5,1183.4,3628.9z"/><path d="M1851.4,3628.9c-210.5-59.3-239.3-357.9-45.9-461.3c78.5-42.1,130.2-44,218.2-7.7c124.4,53.6,181.8,227.8,114.8,356C2090.6,3605.9,1956.6,3659.5,1851.4,3628.9z"/><path d="M2521.3,3628.9c-210.5-59.3-239.3-357.9-45.9-461.3c78.5-42.1,130.2-44,218.2-7.7c132.1,55.5,183.8,239.3,105.3,365.6C2745.2,3613.6,2622.7,3657.6,2521.3,3628.9z"/><path d="M475.2,2331.2c9.6-7.7,160.8-124.4,336.9-258.4l319.6-241.2l602.9,3.8l604.8,5.7l-335,254.6l-333,252.7h-606.8C722.1,2348.4,463.7,2340.7,475.2,2331.2z"/><path d="M2542.3,2090l338.8-258.4H5000h2116.9l340.7,258.4l340.7,258.4H5000H2201.6L2542.3,2090z"/><path d="M7991.7,2093.8l-331.1-252.7l604.8-5.7l602.9-3.8l319.7,241.2c176.1,134,327.3,250.7,336.9,260.3c11.5,7.7-256.5,15.3-593.4,13.4h-610.6L7991.7,2093.8z"/><path d="M5279.4,1110c-72.7-235.4-932.1-3162-936-3183.1c-3.8-23,32.5-28.7,212.5-34.5c208.6-5.7,214.4-3.8,233.5,38.3c23,51.7,916.8,3083.6,932.1,3160.1l11.5,51.7h-222C5317.7,1142.5,5289,1138.7,5279.4,1110z"/><path d="M2932.8-40.4L1870.5-536.1v-199.1v-199.1l1060.4-491.9c583.8-271.8,1064.2-493.8,1068.1-493.8c3.8,0,5.7,105.3,5.7,235.4v233.5l-803.9,352.2c-442.1,193.3-803.9,357.9-803.9,363.7c0,7.6,361.8,172.3,803.9,365.6l803.9,352.2V218c0,130.2-1.9,235.4-3.8,235.4C3997,453.5,3516.6,231.4,2932.8-40.4z"/><path d="M5995.3,218V-19.3l823-352.2c453.6-193.3,823-356,823-363.7c0-5.7-369.4-168.4-823-363.7l-823-352.2v-233.5c0-130.2,1.9-235.4,5.7-235.4c3.8,0,484.2,218.2,1068,486.2l1060.4,486.2l5.7,208.6c5.7,202.9,3.8,210.5-38.3,229.7c-135.9,65.1-1986.8,914.9-2038.5,936l-63.2,26.8V218z"/><path d="M844.6-3305.8c-153.1-116.7-304.3-233.5-335-256.5l-55.5-40.2h612.5h612.5l323.5,246.9c178,137.8,327.3,252.7,333,258.4c5.7,5.7-264.1,9.6-601,7.7H1124L844.6-3305.8z"/><path d="M2550-3340.2l-333-254.6l1391.5-5.7c765.6-1.9,2017.4-1.9,2783.1,0l1391.5,5.7l-335,254.6l-335,252.7h-2115H2885L2550-3340.2z"/><path d="M7664.4-3097.1c5.7-5.7,155-120.6,333-258.4l323.5-246.9l612.5-1.9c335,0,602.9,7.7,593.4,15.3c-11.5,9.6-162.7,126.3-338.8,258.4l-321.6,243.1h-604.8C7926.6-3087.6,7658.6-3091.4,7664.4-3097.1z"/></g></g>
</svg>