<?xml version="1.0" encoding="utf-8"?>
<!-- Svg Vector Icons : http://www.onlinewebfonts.com/icon -->
<!DOCTYPE svg PUBLIC "-//W3C//DTD SVG 1.1//EN" "http://www.w3.org/Graphics/SVG/1.1/DTD/svg11.dtd">
<svg version="1.1" xmlns="http://www.w3.org/2000/svg" xmlns:xlink="http://www.w3.org/1999/xlink" x="0px" y="0px" viewBox="0 0 1000 1000" enable-background="new 0 0 1000 1000" xml:space="preserve">
<metadata> Svg Vector Icons : http://www.onlinewebfonts.com/icon </metadata>
<g><g transform="translate(0.000000,511.000000) scale(0.100000,-0.100000)"><path d="M301,4471.2c-91.9-42.1-132.1-84.2-172.3-179.9c-24.9-61.3-28.7-446-28.7-3395.6c0-3192.7,1.9-3330.5,36.4-3403.2c40.2-88,103.4-151.2,179.9-179.9c36.4-15.3,574.2-21,1676.7-21c892,0,1627-3.8,1632.7-9.6c9.6-9.6-130.2-1012.5-147.4-1058.5c-5.7-17.2-97.6-23-363.7-23h-356l5.7-245l5.7-243.1H5000h2229.9l5.7,245l5.7,243.1h-356c-266.1,0-357.9,5.7-363.7,24.9c-17.2,44-157,1047-147.4,1056.6c5.7,5.7,740.7,9.6,1632.7,9.6c1102.5,0,1640.4,5.7,1676.7,21c76.6,28.7,139.7,91.9,179.9,179.9c34.5,72.7,36.4,208.6,36.4,3407c0,3190.7-1.9,3334.3-36.4,3407c-42.1,91.9-84.2,132.1-179.9,172.3c-61.3,24.9-574.2,28.7-4687.5,28.7C555.5,4507.6,373.7,4505.6,301,4471.2z M1286.7,1540.8c0-1462.4,5.7-2660.5,11.5-2660.5c5.7,0,335,256.5,731.2,568.5c396.2,312,735,568.5,750.3,568.5s354.1-256.5,750.3-568.5c396.2-312,725.4-568.5,731.2-568.5c5.7,0,11.5,1198.2,11.5,2660.5v2660.5l2656.7-3.8l2654.8-5.7l5.7-2807.9l3.8-2809.8H5000H406.2v2800.3c0,1540.8,5.7,2807.9,13.4,2813.7c5.7,7.7,204.8,13.4,440.2,13.4h426.8V1540.8z M3966.4,1847V-507.3L3384.5-47.9c-319.6,252.7-593.4,459.4-604.8,459.4s-283.3-206.7-604.8-459.4L1593-505.4V1847v2354.3h1186.7h1186.7V1847z M9589.9-2061.5l-5.7-331.1H5000H415.8l-5.7,331.1l-3.8,329.2H5000h4593.7L9589.9-2061.5z M6052.7-2718c0-3.8,34.5-243.1,76.6-528.3c42.1-287.1,76.6-528.3,76.6-537.9c0-7.6-541.7-15.3-1205.9-15.3c-664.2,0-1205.9,7.7-1205.9,17.2c0,19.1,128.2,924.5,143.6,1012.5l11.5,61.3H5000C5580-2708.5,6052.7-2712.3,6052.7-2718z"/><path d="M5248.8,3301.7v-153.1h1674.8h1674.8v153.1v153.1H6923.6H5248.8V3301.7z"/><path d="M5248.8,2670.1v-153.1h1674.8h1674.8v153.1v153.1H6923.6H5248.8V2670.1z"/><path d="M5248.8,2019.3v-153.1h1674.8h1674.8v153.1v153.1H6923.6H5248.8V2019.3z"/><path d="M5248.8,1387.6v-153.1h1674.8h1674.8v153.1v153.1H6923.6H5248.8V1387.6z"/><path d="M5248.8,756V602.9h1674.8h1674.8V756v153.1H6923.6H5248.8V756z"/><path d="M5248.8,124.4V-28.8h1674.8h1674.8v153.1v153.1H6923.6H5248.8V124.4z"/><path d="M5248.8-526.4v-153.1h1674.8h1674.8v153.1v153.1H6923.6H5248.8V-526.4z"/><path d="M2760.5,3198.3c-9.6-28.7-19.1-57.4-19.1-63.2c0-5.7-34.4-120.6-78.5-256.5l-76.6-246.9l-306.3-3.8l-304.3-5.7l239.3-179.9c132.1-99.5,239.3-193.3,239.3-208.6c0-15.3-38.3-149.3-86.1-298.6c-47.9-151.2-86.1-279.5-86.1-287.1c0-5.7,103.4,65.1,229.7,160.8s243.1,178,258.4,183.8c15.3,7.7,124.4-63.2,268-172.3c132.1-99.5,239.3-172.3,239.3-160.8c0,11.5-38.3,143.6-86.1,294.8c-47.9,149.3-86.1,279.5-86.1,287.1c0,9.6,109.1,99.5,243.1,199.1l241.2,181.8l-306.3,5.7l-304.3,3.8l-93.8,302.4c-49.8,164.6-93.8,304.3-97.6,308.2C2783.5,3246.2,2772,3227.1,2760.5,3198.3z"/></g></g>
</svg>